HIERARCHY
ROOT Hips
{
	OFFSET -0.001795 -0.223333 0.028219
	CHANNELS 6 Xposition Yposition Zposition Zrotation Yrotation Xrotation 
	JOINT LeftUpLeg
	{
		OFFSET 0.069520 -0.091406 -0.006815
		CHANNELS 3 Zrotation Yrotation Xrotation
		JOINT LeftLeg
		{
			OFFSET 0.034277 -0.375199 -0.004496
			CHANNELS 3 Zrotation Yrotation Xrotation
			JOINT LeftFoot
			{
				OFFSET -0.013596 -0.397961 -0.043693
				CHANNELS 3 Zrotation Yrotation Xrotation
				JOINT LeftToe
				{
					OFFSET 0.026358 -0.055791 0.119288
					CHANNELS 3 Zrotation Yrotation Xrotation
					End Site
					{
						OFFSET 0.000000 0.000000 0.000000
					}
				}
			}
		}
	}
	JOINT RightUpLeg
	{
		OFFSET -0.067670 -0.090522 -0.004320
		CHANNELS 3 Zrotation Yrotation Xrotation
		JOINT RightLeg
		{
			OFFSET -0.038290 -0.382569 -0.008850
			CHANNELS 3 Zrotation Yrotation Xrotation
			JOINT RightFoot
			{
				OFFSET 0.015774 -0.398415 -0.042312
				CHANNELS 3 Zrotation Yrotation Xrotation
				JOINT RightToe
				{
					OFFSET -0.025372 -0.048144 0.123348
					CHANNELS 3 Zrotation Yrotation Xrotation
					End Site
					{
						OFFSET 0.000000 0.000000 0.000000
					}
				}
			}
		}
	}
	JOINT Spine
	{
		OFFSET -0.002533 0.108963 -0.026696
		CHANNELS 3 Zrotation Yrotation Xrotation
		JOINT Spine1
		{
			OFFSET 0.005487 0.135180 0.001092
			CHANNELS 3 Zrotation Yrotation Xrotation
			JOINT Spine2
			{
				OFFSET 0.001457 0.052922 0.025425
				CHANNELS 3 Zrotation Yrotation Xrotation
				JOINT Neck
				{
					OFFSET -0.002778 0.213870 -0.042857
					CHANNELS 3 Zrotation Yrotation Xrotation
					JOINT Head
					{
						OFFSET 0.005152 0.064970 0.051349
						CHANNELS 3 Zrotation Yrotation Xrotation
						End Site
						{
							OFFSET 0.000000 0.000000 0.000000
						}
					}
				}
				JOINT LeftShoulder
				{
					OFFSET 0.078845 0.121749 -0.034090
					CHANNELS 3 Zrotation Yrotation Xrotation
					JOINT LeftArm
					{
						OFFSET 0.090977 0.030469 -0.008868
						CHANNELS 3 Zrotation Yrotation Xrotation
						JOINT LeftForeArm
						{
							OFFSET 0.259612 -0.012772 -0.027456
							CHANNELS 3 Zrotation Yrotation Xrotation
							JOINT LeftHand
							{
								OFFSET 0.249234 0.008986 -0.001171
								CHANNELS 3 Zrotation Yrotation Xrotation
								End Site
								{
									OFFSET 0.000000 0.000000 0.000000
								}
							}
						}
					}
				}
				JOINT RightShoulder
				{
					OFFSET -0.081759 0.118833 -0.038615
					CHANNELS 3 Zrotation Yrotation Xrotation
					JOINT RightArm
					{
						OFFSET -0.096012 0.032551 -0.009143
						CHANNELS 3 Zrotation Yrotation Xrotation
						JOINT RightForeArm
						{
							OFFSET -0.253742 -0.013329 -0.021401
							CHANNELS 3 Zrotation Yrotation Xrotation
							JOINT RightHand
							{
								OFFSET -0.255298 0.007772 -0.005559
								CHANNELS 3 Zrotation Yrotation Xrotation
								End Site
								{
									OFFSET 0.000000 0.000000 0.000000
								}
							}
						}
					}
				}
			}
		}
	}
}
MOTION
Frames: 18
Frame Time: 0.050000
0.000000 0.924475 0.000000 -0.143057 2.113358 9.346430 5.131396 -0.550766 -7.480550 -0.484798 -0.227150 8.662120 12.704195 24.104670 18.772115 0.000000 0.000000 0.000000 0.255686 2.169037 -21.989917 4.020005 -0.427970 13.033990 77.090822 35.873307 81.247259 0.000000 0.000000 0.000000 6.350771 -0.827897 5.696391 1.589644 -0.731845 -0.281003 -4.872143 -3.277430 11.076672 14.121597 -8.105012 -14.919736 0.000000 0.000000 0.000000 -18.155827 -9.695271 4.129687 -52.981380 -7.896627 -3.457930 -11.449790 -33.259839 5.020871 0.000000 0.000000 0.000000 17.598608 -0.219427 -1.991381 57.546450 5.219210 -3.562040 13.988483 46.729308 7.604306 0.000000 0.000000 0.000000 
-0.003823 0.922622 -0.006230 -0.775249 0.939340 10.477667 6.982465 -0.530120 -8.202161 -2.450986 0.160393 7.448819 13.531735 25.121238 18.564097 0.000000 0.000000 0.000000 1.168791 2.551777 -23.889982 3.896320 -0.358407 13.291227 77.462811 35.575394 82.145503 0.000000 0.000000 0.000000 7.832020 -1.287501 8.281603 0.946591 -0.469492 0.742798 -4.666695 -5.611567 9.979138 14.339966 -8.811192 -12.908739 0.000000 0.000000 0.000000 -18.617081 -9.944446 5.132253 -51.687113 -10.697749 -2.283169 -9.025977 -36.396908 5.015364 0.000000 0.000000 0.000000 15.309916 0.050725 -2.275447 58.580653 4.484105 -3.877848 19.091082 48.278158 9.438397 0.000000 0.000000 0.000000 
-0.007474 0.920783 -0.013247 -0.454139 0.185111 11.800627 7.812470 -0.548960 -9.745303 -4.298186 0.485649 7.040794 14.033398 25.749370 18.624772 0.000000 0.000000 0.000000 1.643816 3.051484 -27.328031 2.612868 -0.004826 15.980503 77.621007 35.686370 82.476241 0.000000 0.000000 0.000000 8.181982 -1.725247 11.450175 1.786798 -0.847807 0.593909 -5.803287 -7.294332 9.942365 12.737570 -7.596524 -14.227319 0.000000 0.000000 0.000000 -18.863808 -11.742882 6.778064 -50.138073 -16.992821 0.232068 -3.897234 -34.446276 3.246201 0.000000 0.000000 0.000000 16.040362 0.753037 -2.513682 58.933811 3.766361 -4.168059 18.015957 50.615825 9.003132 0.000000 0.000000 0.000000 
-0.011193 0.920141 -0.019700 -0.065379 -1.178620 13.658954 8.326311 -0.568094 -12.048240 -5.871971 0.782252 7.127267 14.853995 26.633487 19.784493 0.000000 0.000000 0.000000 1.279085 3.364705 -29.973638 2.644730 0.040305 16.118484 77.842940 35.283425 83.436002 0.000000 0.000000 0.000000 8.581871 -2.118674 14.013527 1.541325 -0.701466 0.152004 -5.732522 -9.000584 9.745375 11.629416 -7.164367 -13.344814 0.000000 0.000000 0.000000 -20.776049 -14.292875 9.434343 -47.252678 -21.317050 1.527926 1.458782 -35.045076 1.777312 0.000000 0.000000 0.000000 16.495137 1.842293 -2.697224 57.997266 3.088423 -4.244059 21.225992 54.182942 10.644100 0.000000 0.000000 0.000000 
-0.014704 0.917790 -0.024597 0.764035 -1.946412 15.110001 7.506160 -0.654502 -13.436657 -5.771071 0.762210 6.396996 15.369212 27.263795 19.919214 0.000000 0.000000 0.000000 0.233545 3.506306 -32.715155 3.058415 -0.011570 17.402043 77.730284 35.192506 83.692752 0.000000 0.000000 0.000000 8.460663 -2.349039 16.050365 3.234931 -1.507372 1.116611 -7.200940 -11.377074 8.375710 10.111567 -6.289142 -13.134905 0.000000 0.000000 0.000000 -22.788524 -17.167816 12.523576 -41.789433 -26.319897 2.546402 7.898174 -31.872713 -0.220584 0.000000 0.000000 0.000000 17.231861 4.569188 -2.171456 56.864091 2.557726 -4.000167 22.339305 56.046506 10.875805 0.000000 0.000000 0.000000 
-0.018372 0.915868 -0.026193 1.134073 -2.017521 16.425874 7.809324 -0.675622 -14.403589 -6.270965 0.862598 7.018887 12.874561 24.512187 15.111387 0.000000 0.000000 0.000000 -0.157371 3.580856 -34.214200 3.255927 -0.063182 17.262218 77.982368 35.559268 83.707356 0.000000 0.000000 0.000000 8.752606 -2.602628 17.324683 3.626467 -1.662803 0.926201 -7.553778 -13.224514 7.911199 8.233094 -5.371396 -11.587335 0.000000 0.000000 0.000000 -24.354867 -19.548811 15.315238 -37.002855 -31.034477 3.092068 12.236506 -27.669282 -1.260956 0.000000 0.000000 0.000000 17.788211 5.038037 -2.592808 55.439284 1.451414 -4.114822 25.224490 57.367897 12.180692 0.000000 0.000000 0.000000 
-0.021874 0.913875 -0.024748 1.594239 -2.373122 16.694271 7.681730 -0.670325 -13.722704 -6.118980 0.854039 7.394852 10.333979 20.996013 10.359774 0.000000 0.000000 0.000000 -0.545133 3.573205 -34.730171 3.470328 -0.097710 17.774919 78.317654 35.732885 83.933574 0.000000 0.000000 0.000000 8.542266 -2.711425 18.769158 4.278405 -1.973315 1.272186 -8.483846 -14.884809 7.502702 6.747182 -4.594038 -10.511893 0.000000 0.000000 0.000000 -24.936837 -20.952378 17.049083 -32.403358 -33.759751 2.910500 16.029069 -23.987974 -1.888296 0.000000 0.000000 0.000000 19.203617 6.878871 -2.482727 54.166195 1.010426 -3.812117 27.060001 58.690410 13.071657 0.000000 0.000000 0.000000 
-0.024964 0.913132 -0.021317 1.568193 -2.778504 16.357339 8.249560 -0.607322 -13.209455 -5.944182 0.904569 9.894982 7.559679 16.255805 5.760646 0.000000 0.000000 0.000000 -0.466256 3.615822 -34.585654 3.839699 -0.163166 18.546584 77.838114 35.239726 84.017657 0.000000 0.000000 0.000000 8.464467 -2.814320 20.083822 4.308082 -2.029090 2.076913 -8.397834 -15.314583 6.529355 5.397413 -3.773587 -9.694466 0.000000 0.000000 0.000000 -24.364238 -22.820954 18.279229 -29.796129 -35.506479 2.899909 17.555945 -20.955106 -1.940326 0.000000 0.000000 0.000000 20.278128 7.020439 -2.829248 52.678177 1.195010 -3.331758 28.966497 59.964671 14.395169 0.000000 0.000000 0.000000 
-0.027722 0.912882 -0.017360 1.890492 -2.346318 16.303894 8.437751 -0.605597 -13.025632 -5.674042 0.888094 11.787141 5.555467 12.180005 2.428838 0.000000 0.000000 0.000000 -0.503833 3.532980 -34.343279 3.664746 -0.134942 18.771487 77.767413 35.442290 83.673875 0.000000 0.000000 0.000000 8.523961 -2.869843 20.289612 4.444883 -2.092551 1.966854 -8.783045 -15.548064 6.679210 4.381283 -3.139128 -9.555905 0.000000 0.000000 0.000000 -25.266460 -23.740000 19.239562 -27.089859 -36.374369 2.453090 18.376968 -19.194610 -1.929877 0.000000 0.000000 0.000000 20.861705 7.814979 -2.538660 51.780809 1.563078 -2.994680 29.306413 60.084244 14.689231 0.000000 0.000000 0.000000 
-0.029903 0.913682 -0.013888 1.981225 -1.665077 16.187390 9.134981 -0.578019 -13.128025 -5.848859 0.964339 13.941185 3.994995 8.551876 0.027674 0.000000 0.000000 0.000000 -0.427325 3.458660 -34.098672 3.649642 -0.158262 19.063723 76.938912 35.260181 82.961911 0.000000 0.000000 0.000000 8.383272 -2.894971 20.555099 4.784730 -2.296373 2.459408 -8.630290 -14.475936 6.116004 3.571176 -2.542121 -8.920997 0.000000 0.000000 0.000000 -25.756007 -25.014363 19.778565 -26.136740 -37.087220 2.465847 18.266562 -18.316056 -1.847288 0.000000 0.000000 0.000000 20.609826 7.699960 -2.070591 51.201707 2.040104 -2.825571 29.162012 61.767697 15.548197 0.000000 0.000000 0.000000 
-0.031264 0.914640 -0.010965 2.433686 -0.553467 16.126753 9.472814 -0.595346 -14.324638 -6.142977 1.048883 16.124445 2.929957 6.422401 0.431830 0.000000 0.000000 0.000000 -0.685708 3.290642 -34.162110 3.429980 -0.147539 19.777299 76.001213 35.284035 81.885913 0.000000 0.000000 0.000000 8.512739 -2.934184 20.196664 4.467656 -2.172460 2.537665 -8.818360 -13.314528 6.366963 3.559446 -2.457062 -8.955050 0.000000 0.000000 0.000000 -25.415383 -25.762085 19.451650 -27.073277 -37.515790 2.927911 18.407080 -19.058283 -1.953164 0.000000 0.000000 0.000000 20.981887 7.309333 -1.778867 50.378534 2.984050 -2.509356 28.214288 62.564202 15.843472 0.000000 0.000000 0.000000 
-0.031436 0.915559 -0.008364 2.712812 1.529312 15.497845 10.250689 -0.601151 -15.267445 -6.703819 1.157859 18.815255 1.690475 3.751791 0.256363 0.000000 0.000000 0.000000 -0.865649 2.994605 -33.602377 3.373985 -0.238669 20.602518 74.599678 35.469136 80.028999 0.000000 0.000000 0.000000 8.336044 -2.882323 19.532068 4.561377 -2.245836 2.321428 -8.734347 -11.589944 7.265138 3.952619 -2.615492 -8.940363 0.000000 0.000000 0.000000 -26.798580 -26.837705 19.626585 -27.402716 -37.241231 3.014126 17.651011 -20.478906 -2.022550 0.000000 0.000000 0.000000 19.763097 7.290306 -0.672940 50.437971 4.050425 -2.485922 25.903956 64.755422 16.007114 0.000000 0.000000 0.000000 
-0.030363 0.917347 -0.005426 3.153016 3.944582 15.182318 10.421726 -0.683770 -16.527114 -6.562875 0.999813 20.667736 0.311460 1.419317 1.522447 0.000000 0.000000 0.000000 -1.438184 2.607008 -33.496044 3.515773 -0.430858 21.733852 72.557291 35.363633 77.812566 0.000000 0.000000 0.000000 8.566990 -2.875231 18.420380 3.883634 -1.960112 2.239890 -8.548594 -9.819410 7.851350 4.210878 -2.576066 -9.758950 0.000000 0.000000 0.000000 -26.162741 -26.342613 17.819527 -31.294021 -35.806459 3.816103 17.193964 -24.706574 -2.367158 0.000000 0.000000 0.000000 19.500845 6.739658 -0.024833 50.068420 5.334477 -2.250481 21.393160 66.429498 14.625754 0.000000 0.000000 0.000000 
-0.027608 0.919830 -0.002369 3.619419 6.814219 14.553775 10.356655 -0.794814 -16.750324 -6.731652 0.851673 21.479773 0.926233 2.921204 1.875841 0.000000 0.000000 0.000000 -2.117806 2.105432 -32.587107 3.682913 -0.684288 22.265678 70.659992 35.468175 75.423290 0.000000 0.000000 0.000000 8.676627 -2.827815 17.334692 3.645743 -1.811919 1.315154 -8.354050 -7.798107 9.130576 4.536270 -2.547359 -10.337980 0.000000 0.000000 0.000000 -27.964475 -25.733348 16.449536 -32.214018 -32.418477 3.322936 14.159648 -30.101066 -2.226951 0.000000 0.000000 0.000000 18.148036 6.053542 0.756983 50.526515 6.584592 -2.173478 19.505687 67.470162 14.906166 0.000000 0.000000 0.000000 
-0.023662 0.923211 0.000782 3.986011 10.059590 14.142435 10.588679 -0.908689 -17.062214 -6.327423 0.519489 21.245584 2.314399 6.369547 3.199530 0.000000 0.000000 0.000000 -2.648730 1.622188 -31.126760 3.683491 -0.884822 21.614557 69.005890 35.942968 72.842831 0.000000 0.000000 0.000000 8.822314 -2.686611 15.596640 2.821174 -1.447056 1.198694 -7.591422 -6.041226 9.288244 5.208185 -2.707373 -10.751371 0.000000 0.000000 0.000000 -27.029245 -24.145934 13.605666 -36.479260 -28.657544 3.411314 10.577417 -36.049693 -1.711558 0.000000 0.000000 0.000000 17.815726 5.044107 1.141650 49.879399 6.863524 -2.269150 17.261541 68.048984 14.735543 0.000000 0.000000 0.000000 
-0.018550 0.925874 0.003374 4.404878 13.374779 13.543064 10.514691 -1.020512 -16.676013 -6.345053 0.328132 20.306638 3.297374 9.203742 5.456350 0.000000 0.000000 0.000000 -3.378079 1.131406 -29.152937 3.893989 -1.129278 20.564907 67.533425 36.695517 70.145714 0.000000 0.000000 0.000000 8.731861 -2.431757 13.703130 2.212685 -1.156966 0.838734 -6.980372 -4.071486 9.644300 5.258378 -2.384201 -11.290130 0.000000 0.000000 0.000000 -27.183318 -22.986886 11.173402 -38.245790 -24.047129 2.706702 5.898573 -39.954308 -0.565683 0.000000 0.000000 0.000000 17.106881 4.236759 1.679420 50.166305 6.785105 -2.543668 14.957557 68.287922 14.555970 0.000000 0.000000 0.000000 
-0.012362 0.927653 0.005601 4.532915 16.694272 13.112156 10.847868 -1.104324 -16.167009 -6.378822 0.185737 19.033491 2.789330 10.963279 12.449144 0.000000 0.000000 0.000000 -3.878753 0.752832 -27.513500 4.163782 -1.385809 19.746083 65.868113 37.409423 67.320059 0.000000 0.000000 0.000000 8.601201 -2.130878 11.654394 1.440197 -0.863221 1.235333 -6.237402 -2.156965 9.626338 5.885866 -2.629987 -10.631192 0.000000 0.000000 0.000000 -26.574724 -21.551655 8.539438 -40.084612 -19.932563 2.051493 1.813721 -42.883433 0.525050 0.000000 0.000000 0.000000 16.764887 3.322837 2.039169 49.386346 6.631970 -2.753832 13.535041 68.215162 14.747467 0.000000 0.000000 0.000000 
-0.004749 0.928534 0.007190 4.573106 19.995505 12.107790 11.000245 -1.144991 -14.866893 -6.361115 0.090472 17.213087 0.702985 12.561283 27.297017 0.000000 0.000000 0.000000 -4.589810 0.401384 -25.099894 4.882101 -1.758855 18.690420 64.190997 38.210341 64.421286 0.000000 0.000000 0.000000 8.504246 -1.851453 9.879843 0.875856 -0.627040 1.264097 -5.474605 -0.781166 9.893925 6.101783 -2.545597 -10.603688 0.000000 0.000000 0.000000 -26.858194 -20.842196 6.728332 -40.258358 -15.928096 1.190822 -1.681892 -43.702341 1.522659 0.000000 0.000000 0.000000 16.533323 3.122484 2.628262 49.271561 6.105887 -3.110408 11.678004 67.792299 14.319145 0.000000 0.000000 0.000000 
